<?xml version="1.0" encoding="UTF-8"?>
<svg id="_Слой_1" data-name="Слой_1" xmlns="http://www.w3.org/2000/svg" version="1.1" xmlns:xlink="http://www.w3.org/1999/xlink" viewBox="0 0 685.6 678.5">
  <!-- Generator: Adobe Illustrator 29.3.1, SVG Export Plug-In . SVG Version: 2.1.0 Build 151)  -->
  <defs>
    <style>
      .st0 {
        fill: url(#_Безымянный_градиент_42);
      }

      .st1 {
        fill: #014256;
      }

      .st2 {
        fill: #d5ad79;
      }
    </style>
    <linearGradient id="_Безымянный_градиент_42" data-name="Безымянный градиент 42" x1="183.7" y1="252.6" x2="597" y2="525" gradientUnits="userSpaceOnUse">
      <stop offset="0" stop-color="#3bc1c4"/>
      <stop offset="0" stop-color="#31b5be"/>
      <stop offset=".3" stop-color="#1c9bb0"/>
      <stop offset=".4" stop-color="#1492ab"/>
      <stop offset=".6" stop-color="#0b6f86"/>
      <stop offset=".9" stop-color="#034d61"/>
      <stop offset="1" stop-color="#004053"/>
    </linearGradient>
  </defs>
  <path class="st0" d="M245.7,613.9c-34.3-15.7-62.2-33.8-89.2-60.4-56.1-55.6-88-131-89-210-.2-79.1,30.6-155.1,85.8-211.8,51.8-52.5,123.7-83.4,197.7-84.1,11.6-.1,22.4,2.6,30.9,11.1,17.7,17.8,13.8,50.6-9.3,61.7-11.1,5.3-27.8,4.1-40.5,5.5-47.1,5.5-91.1,26.3-125.2,59.2-40.8,39.6-64.9,97.1-65.8,153.9-1.1,50.9,15,101,46.9,140.8,9.3,11.7,17.5,18.7,27.7,29.1,10.6,8.1,17.5,14.1,29.2,21.3,42.9,26.4,93.6,37.3,143.6,30.9,58.5-7.5,111.4-38.2,147-85.2,11.6-15,21.2-31.5,28.5-49,2.2-5.2,4.6-11.3,6-16.6,4.1-15.1,5.7-27.5,19.7-36.8,5.1-3.4,9.5-5.3,15.7-6.2,10-1.2,20,1.6,27.9,7.8,7.7,6.1,12.6,15.1,13.6,25,1.1,10.5-2.5,20.7-5.7,30.5-11.5,36.6-29.9,70.7-54.2,100.3-28,34-63.2,61.3-103,79.9-70.1,32.4-150.2,35.6-222.7,9.1-5.3-1.9-10.5-4-15.7-6.3Z"/>
  <path class="st2" d="M470.1,68.7c12.7.3,19.1,4.7,30.2,10.4,18.8,9.7,35.8,21.4,51.9,35.2,41.5,35.1,72.2,81.3,88.6,133.2,2.5,7.9,6.5,20.8,7.1,28.8.7,10.4-2.8,20.7-9.8,28.4-7.3,8.1-16.8,11.2-27.4,11.8-35.5-2-33.7-30-43.2-55.4-16-42.2-45-78.2-82.8-102.8-5.5-3.6-10.6-6.6-16.4-9.7-7.3-3.8-16.4-7-22.6-12.3-7.6-6.6-12.3-16-13.1-26-.8-10.3,2.6-20.5,9.4-28.3,7.8-9.1,16.5-12.2,28.1-13.1Z"/>
  <path class="st1" d="M352.2,266.9c40.7-5.3,78,23.4,83.3,64.1,5.4,40.7-23.3,78-63.9,83.4-40.8,5.4-78.2-23.3-83.6-64-5.4-40.8,23.4-78.2,64.2-83.5Z"/>
</svg>